<mxfile host="app.diagrams.net" modified="2023-10-07T18:53:42.679Z" agent="Mozilla/5.0 (Windows NT 10.0; Win64; x64) AppleWebKit/537.36 (KHTML, like Gecko) Chrome/117.0.0.0 Safari/537.36" etag="4CiODDx_nuJJ_Fph37kD" version="22.0.4" type="device">
  <diagram id="R2lEEEUBdFMjLlhIrx00" name="Page-1">
    <mxGraphModel dx="1434" dy="750" grid="1" gridSize="11" guides="1" tooltips="1" connect="1" arrows="1" fold="1" page="1" pageScale="1" pageWidth="850" pageHeight="1100" math="0" shadow="0" extFonts="Permanent Marker^https://fonts.googleapis.com/css?family=Permanent+Marker">
      <root>
        <mxCell id="0" />
        <mxCell id="1" parent="0" />
        <mxCell id="4DdQfHxZKoPF73KcmgSd-23" value="Employee" style="swimlane;fontStyle=0;childLayout=stackLayout;horizontal=1;startSize=30;horizontalStack=0;resizeParent=1;resizeParentMax=0;resizeLast=0;collapsible=1;marginBottom=0;align=center;fontSize=14;" parent="1" vertex="1">
          <mxGeometry x="340" y="44" width="254" height="297" as="geometry" />
        </mxCell>
        <mxCell id="4DdQfHxZKoPF73KcmgSd-26" value="_id: ObjectId&#xa;&#xa;name : String [required, trim]&#xa;&#xa;phone: String [required]&#xa;&#xa;email: StringÂ &#xa;&#xa;address: String [required, trim]&#xa;&#xa;city: String [required, trim]&#xa;&#xa;state : String [required, trim]&#xa;&#xa;emergency_phone : String [required, trim]&#xa;&#xa;timestamps: true" style="text;strokeColor=none;fillColor=none;spacingLeft=4;spacingRight=4;overflow=hidden;rotatable=0;points=[[0,0.5],[1,0.5]];portConstraint=eastwest;fontSize=12;" parent="4DdQfHxZKoPF73KcmgSd-23" vertex="1">
          <mxGeometry y="30" width="254" height="267" as="geometry" />
        </mxCell>
      </root>
    </mxGraphModel>
  </diagram>
</mxfile>
